<?xml version="1.0" encoding="UTF-8"?>
<svg width="250" height="300" version="1.1" viewBox="0 0 66.146 79.375" xmlns="http://www.w3.org/2000/svg">
 <g>
  <g stroke-width=".26098">
   <path d="m33.072 3.9993a26.457 26.457 0 0 0-9.1131 1.6191l4.5563 4.7768a22.048 22.048 0 0 1 7.9463-1.4981 22.048 22.048 0 0 1 0.0425 0 22.048 22.048 0 0 1 2.1247 0.10267l-2.0083-4.7615a26.457 26.457 0 0 0-3.548-0.23907zm5.9141 0.66952 1.7422 4.6371a22.048 22.048 0 0 1 8.976 3.9801l0.21313-3.2308a26.457 26.457 0 0 0-10.931-5.3864zm-17.087 1.8055a26.457 26.457 0 0 0-9.5804 7.5726l6.8212 3.3111a22.048 22.048 0 0 1 7.5764-6.1694zm29.71 5.1049-0.32932 3.0023a22.048 22.048 0 0 1 4.2391 5.205l0.96705-1.6493a26.457 26.457 0 0 0-4.8768-6.558zm-40.497 4.1214a26.457 26.457 0 0 0-4.2225 10.954l7.8121 1.007a22.048 22.048 0 0 1 3.384-8.836zm46.151 4.042-0.96334 1.4962a22.048 22.048 0 0 1 1.5557 4.2096l1.0447-0.72848a26.457 26.457 0 0 0-1.6371-4.9773zm1.8963 6.3043-1.0197 0.65728a22.048 22.048 0 0 1 0.34089 2.4768l1.005-0.2477a26.457 26.457 0 0 0-0.32622-2.8864zm-52.482 2.5999a26.457 26.457 0 0 0-0.06212 1.8099 26.457 26.457 0 0 0 1.8522 9.7248l7.3632-1.5732a22.048 22.048 0 0 1-1.3745-7.6632 22.048 22.048 0 0 1 0.05282-1.5246zm52.849 1.4042-0.9857 0.20999a22.048 22.048 0 0 1 0.0125 0.68398 22.048 22.048 0 0 1-0.0973 2.073l0.94225 0.0925a26.457 26.457 0 0 0 0.1334-2.6538 26.457 26.457 0 0 0-9e-3 -0.40568zm-1.1906 3.9694a22.048 22.048 0 0 1-0.34504 1.8642l0.88949 0.39779a26.457 26.457 0 0 0 0.39141-2.1418zm-0.6077 2.8926a22.048 22.048 0 0 1-0.91735 2.618l0.81037 0.79208a26.457 26.457 0 0 0 0.99631-2.9791zm-41.179 3.4078-7.2304 1.7868a26.457 26.457 0 0 0 8.2724 9.804l5.4417-3.5131a22.048 22.048 0 0 1-6.4836-8.0777zm39.748 0.33782a22.048 22.048 0 0 1-1.9939 3.298l0.60713 1.4369a26.457 26.457 0 0 0 2.2002-3.8831zm-2.9791 4.5484a22.048 22.048 0 0 1-5.1063 4.4207l-0.17212 2.6461a26.457 26.457 0 0 0 5.8656-5.5074zm-28.607 4.3663-5.1763 3.6144a26.457 26.457 0 0 0 12.804 3.716l2.5515-3.9702a22.048 22.048 0 0 1-10.179-3.3601zm21.739 1.049a22.048 22.048 0 0 1-9.3661 2.3629l-2.2661 3.871a26.457 26.457 0 0 0 11.323-3.3944z" fill="#0d364f"/>
   <path d="m36.614 14.161a17.905 17.905 0 0 0-6.6234 2.8336l4.2592 2.9603a14.324 14.324 0 0 1 5.207-2.3827l-2.3964-3.4966a17.905 17.905 0 0 0-0.44641 0.0855zm2.2534-0.313 2.1681 3.4499a14.324 14.324 0 0 1 5.608 0.45901l-0.39747-2.9072a17.905 17.905 0 0 0-7.3787-1.0017zm-10.221 4.1772a17.905 17.905 0 0 0-4.4987 5.7475l5.6822 1.4525a14.324 14.324 0 0 1 3.2639-4.3307zm19.242-2.4926 0.25452 2.746a14.324 14.324 0 0 1 3.5208 2.0792l0.63297-1.8559a17.905 17.905 0 0 0-4.4083-2.9693zm-24.371 9.6714a17.905 17.905 0 0 0-1.2122 7.0657l6.0681-0.44659a14.324 14.324 0 0 1 0.91103-5.332zm29.843-5.6424-0.66387 1.7104a14.324 14.324 0 0 1 1.9847 2.4121l0.97361-1.0236a17.905 17.905 0 0 0-2.2945-3.099zm2.8772 4.1779-0.9613 0.93992a14.324 14.324 0 0 1 0.76107 1.6365l1.0703-0.50818a17.905 17.905 0 0 0-0.87008-2.0682zm-33.818 10.061a17.905 17.905 0 0 0 0.2395 1.489 17.905 17.905 0 0 0 1.8727 5.0771l5.3903-2.357a14.324 14.324 0 0 1-1.2614-3.6149 14.324 14.324 0 0 1-0.19508-1.2205zm35.006-6.9846-1.0529 0.4597a14.324 14.324 0 0 1 0.35504 1.381 14.324 14.324 0 0 1 0.14463 0.83273l1.0814-0.11264a17.905 17.905 0 0 0-0.21075-1.2597 17.905 17.905 0 0 0-0.31737-1.3011zm-0.44822 3.6336a14.324 14.324 0 0 1 0.0351 1.4634l1.0873 0.24209a17.905 17.905 0 0 0-0.0442-1.7854zm-0.0287 2.4735a14.324 14.324 0 0 1-0.38345 2.1714l1.0685 0.68864a17.905 17.905 0 0 0 0.40835-2.5812zm-26.325 6.3162-5.2528 2.498a17.905 17.905 0 0 0 5.7875 5.42l3.7105-3.6335a14.324 14.324 0 0 1-4.2452-4.2845zm25.612-3.0464a14.324 14.324 0 0 1-1.1993 2.601l0.94216 1.3727a17.905 17.905 0 0 0 1.3419-3.2208zm-1.9603 3.7609a14.324 14.324 0 0 1-3.2522 3.2248l0.3462 2.5188a17.905 17.905 0 0 0 3.8491-4.2455zm-18.061 4.347-3.4887 3.673a17.905 17.905 0 0 0 8.0607 1.6245l1.4549-3.7558a14.324 14.324 0 0 1-6.0269-1.5417zm13.435-0.25373a14.324 14.324 0 0 1-4.0872 1.5122 14.324 14.324 0 0 1-1.6427 0.23741l-1.2378 3.6386a17.905 17.905 0 0 0 1.1045-0.18996 17.905 17.905 0 0 0 6.1162-2.4937z" fill="#3b82b7"/>
   <path d="m45.51 21.937a10.674 10.674 0 0 0-0.32271 0.0136l1.2146 2.9858a8.1122 8.1122 0 0 1 0.92738-0.0798 8.1122 8.1122 0 0 1 0.0134-2.5e-4 8.1122 8.1122 0 0 1 1.3845 0.0814l0.0998-2.5664a10.674 10.674 0 0 0-3.3151-0.43426zm-1.6549 0.1746a10.674 10.674 0 0 0-3.3689 1.2369l2.763 2.7445a8.1122 8.1122 0 0 1 2.0023-0.90447zm6.2441 0.72644-0.19477 2.3617a8.1122 8.1122 0 0 1 1.7283 0.75063l0.89638-1.6273a10.674 10.674 0 0 0-2.4299-1.485zm-10.662 1.197a10.674 10.674 0 0 0-2.3217 2.3627l3.9044 1.767a8.1122 8.1122 0 0 1 1.3363-1.4232zm14.006 1.1232-0.86792 1.4318a8.1122 8.1122 0 0 1 1.3207 1.311l1.058-0.78068a10.674 10.674 0 0 0-1.5108-1.9621zm-16.955 2.226a10.674 10.674 0 0 0-1.176 3.2226l4.3639 0.44311a8.1122 8.1122 0 0 1 0.78504-2.0126zm18.979 0.70273-0.97551 0.6666a8.1122 8.1122 0 0 1 0.52188 1.0133l0.9938-0.27354a10.674 10.674 0 0 0-0.54017-1.4063zm0.78466 2.3663-0.91177 0.22017a8.1122 8.1122 0 0 1 0.31599 1.803l0.81539 0.0579a10.674 10.674 0 0 0-0.01-0.21478 10.674 10.674 0 0 0-0.21575-1.8664zm-21.094 1.2952a10.674 10.674 0 0 0-0.0312 1.147 10.674 10.674 0 0 0 0.21018 1.8377l4.1458-1.0036a8.1122 8.1122 0 0 1-0.0337-0.5453 8.1122 8.1122 0 0 1 0.0493-1.1249zm20.501 1.6587a8.1122 8.1122 0 0 1-0.13336 1.0878l0.7201 0.29921a10.674 10.674 0 0 0 0.19025-1.3085zm-16.004 1.3835-4.0118 1.1069a10.674 10.674 0 0 0 1.8978 3.4748l3.121-2.1362a8.1122 8.1122 0 0 1-1.007-2.4455zm15.631 0.64448a8.1122 8.1122 0 0 1-0.69378 1.5722l0.6402 0.59275a10.674 10.674 0 0 0 0.7647-1.8437zm-13.939 2.7475-2.9129 2.1528a10.674 10.674 0 0 0 3.4669 2.2098l1.5606-2.5784a8.1122 8.1122 0 0 1-2.1146-1.7841zm12.659-0.2942a8.1122 8.1122 0 0 1-1.4037 1.4309l0.49122 1.0801a10.674 10.674 0 0 0 1.5746-1.8541zm-2.3937 2.1035a8.1122 8.1122 0 0 1-2.6159 0.95728l-0.0714 1.8641a10.674 10.674 0 0 0 3.1856-1.5988zm-7.0025 0.53072-1.3486 2.4534a10.674 10.674 0 0 0 2.8239 0.30199 10.674 10.674 0 0 0 1.4576-0.13961l0.16812-2.0623a8.1122 8.1122 0 0 1-3.1011-0.55343z" fill="#acd7f2"/>
  </g>
  <text x="130.16031" y="296.78775" fill="#000000" font-family="sans-serif" font-size="10.583px" letter-spacing="0px" stroke-width=".26458" word-spacing="0px" style="line-height:1.25" xml:space="preserve"><tspan x="130.16031" y="296.78775" stroke-width=".26458"/></text>
  <text transform="scale(1.0567 .94636)" x="5.7832208" y="81.838524" fill="#3b82b7" font-family="Arial" font-size="22.578px" font-weight="bold" letter-spacing="0px" stroke-width=".098248" word-spacing="0px" style="font-variant-caps:normal;font-variant-east-asian:normal;font-variant-ligatures:normal;font-variant-numeric:normal;line-height:1.25" xml:space="preserve"><tspan x="5.7832208" y="81.838524" fill="#3b82b7" font-family="Arial" font-size="22.578px" font-weight="bold" stroke-width=".098248" style="font-variant-caps:normal;font-variant-east-asian:normal;font-variant-ligatures:normal;font-variant-numeric:normal">C U I</tspan></text>
 </g>
</svg>
